<?xml version="1.0" encoding="UTF-8" standalone="no"?>
<!DOCTYPE svg PUBLIC "-//W3C//DTD SVG 1.1//EN"
 "http://www.w3.org/Graphics/SVG/1.1/DTD/svg11.dtd">
<!-- Generated by graphviz version 2.40.1 (20161225.0304)
 -->
<!-- Title: G Pages: 1 -->
<svg width="245pt" height="114pt"
 viewBox="0.00 0.00 245.48 114.00" xmlns="http://www.w3.org/2000/svg" xmlns:xlink="http://www.w3.org/1999/xlink">
<g id="graph0" class="graph" transform="scale(1 1) rotate(0) translate(4 109.9977)">
<title>G</title>
<polygon fill="#ffffff" stroke="transparent" points="-4,4 -4,-109.9977 241.4821,-109.9977 241.4821,4 -4,4"/>
<!-- ToT -->
<g id="node1" class="node">
<title>ToT</title>
<ellipse fill="none" stroke="#000000" cx="53.2953" cy="-25.9977" rx="25.9954" ry="25.9954"/>
<text text-anchor="middle" x="53.2953" y="-22.2977" font-family="Times,serif" font-size="14.00" fill="#000000">ToT</text>
</g>
<!-- AdultStart -->
<g id="node2" class="node">
<title>AdultStart</title>
<ellipse fill="none" stroke="#000000" cx="190.0363" cy="-25.9977" rx="47.3916" ry="18"/>
<text text-anchor="middle" x="190.0363" y="-22.2977" font-family="Times,serif" font-size="14.00" fill="#000000">AdultStart</text>
</g>
<!-- ToT&#45;&gt;AdultStart -->
<g id="edge1" class="edge">
<title>ToT&#45;&gt;AdultStart</title>
<path fill="none" stroke="#000000" d="M79.3371,-25.9977C94.3747,-25.9977 113.9163,-25.9977 132.3872,-25.9977"/>
<polygon fill="#000000" stroke="#000000" points="132.5034,-29.4978 142.5033,-25.9977 132.5033,-22.4978 132.5034,-29.4978"/>
</g>
<!-- LinksHouse -->
<g id="node3" class="node">
<title>LinksHouse</title>
<ellipse fill="none" stroke="#000000" cx="53.2953" cy="-87.9977" rx="53.0913" ry="18"/>
<text text-anchor="middle" x="53.2953" y="-84.2977" font-family="Times,serif" font-size="14.00" fill="#000000">LinksHouse</text>
</g>
<!-- ChildStart -->
<g id="node4" class="node">
<title>ChildStart</title>
<ellipse fill="none" stroke="#000000" cx="190.0363" cy="-87.9977" rx="46.5926" ry="18"/>
<text text-anchor="middle" x="190.0363" y="-84.2977" font-family="Times,serif" font-size="14.00" fill="#000000">ChildStart</text>
</g>
<!-- LinksHouse&#45;&gt;ChildStart -->
<g id="edge2" class="edge">
<title>LinksHouse&#45;&gt;ChildStart</title>
<path fill="none" stroke="#000000" d="M106.9465,-87.9977C115.551,-87.9977 124.482,-87.9977 133.1588,-87.9977"/>
<polygon fill="#000000" stroke="#000000" points="133.1931,-91.4978 143.193,-87.9977 133.193,-84.4978 133.1931,-91.4978"/>
</g>
</g>
</svg>
