<?xml version="1.0" encoding="UTF-8" standalone="no"?>
<!DOCTYPE svg PUBLIC "-//W3C//DTD SVG 1.1//EN"
 "http://www.w3.org/Graphics/SVG/1.1/DTD/svg11.dtd">
<!-- Generated by graphviz version 2.40.1 (20161225.0304)
 -->
<!-- Title: G Pages: 1 -->
<svg width="245pt" height="114pt"
 viewBox="0.00 0.00 245.48 114.00" xmlns="http://www.w3.org/2000/svg" xmlns:xlink="http://www.w3.org/1999/xlink">
<g id="graph0" class="graph" transform="scale(1 1) rotate(0) translate(4 109.9977)">
<title>G</title>
<polygon fill="#ffffff" stroke="transparent" points="-4,4 -4,-109.9977 241.4821,-109.9977 241.4821,4 -4,4"/>
<!-- ToT -->
<g id="node1" class="node">
<title>ToT</title>
<ellipse fill="none" stroke="#000000" cx="184.1869" cy="-25.9977" rx="25.9954" ry="25.9954"/>
<text text-anchor="middle" x="184.1869" y="-22.2977" font-family="Times,serif" font-size="14.00" fill="#000000">ToT</text>
</g>
<!-- AdultStart -->
<g id="node2" class="node">
<title>AdultStart</title>
<ellipse fill="none" stroke="#000000" cx="47.4458" cy="-25.9977" rx="47.3916" ry="18"/>
<text text-anchor="middle" x="47.4458" y="-22.2977" font-family="Times,serif" font-size="14.00" fill="#000000">AdultStart</text>
</g>
<!-- ToT&#45;&gt;AdultStart -->
<g id="edge1" class="edge">
<title>ToT&#45;&gt;AdultStart</title>
<path fill="none" stroke="#000000" d="M158.145,-25.9977C143.1074,-25.9977 123.5658,-25.9977 105.0949,-25.9977"/>
<polygon fill="#000000" stroke="#000000" points="104.9788,-22.4978 94.9788,-25.9977 104.9788,-29.4978 104.9788,-22.4978"/>
</g>
<!-- LinksHouse -->
<g id="node3" class="node">
<title>LinksHouse</title>
<ellipse fill="none" stroke="#000000" cx="184.1869" cy="-87.9977" rx="53.0913" ry="18"/>
<text text-anchor="middle" x="184.1869" y="-84.2977" font-family="Times,serif" font-size="14.00" fill="#000000">LinksHouse</text>
</g>
<!-- ChildStart -->
<g id="node4" class="node">
<title>ChildStart</title>
<ellipse fill="none" stroke="#000000" cx="47.4458" cy="-87.9977" rx="46.5926" ry="18"/>
<text text-anchor="middle" x="47.4458" y="-84.2977" font-family="Times,serif" font-size="14.00" fill="#000000">ChildStart</text>
</g>
<!-- LinksHouse&#45;&gt;ChildStart -->
<g id="edge2" class="edge">
<title>LinksHouse&#45;&gt;ChildStart</title>
<path fill="none" stroke="#000000" d="M130.5356,-87.9977C121.9311,-87.9977 113.0001,-87.9977 104.3233,-87.9977"/>
<polygon fill="#000000" stroke="#000000" points="104.2891,-84.4978 94.2891,-87.9977 104.2891,-91.4978 104.2891,-84.4978"/>
</g>
</g>
</svg>
